<?xml version="1.0" encoding="UTF-8"?>
<svg width="45px" height="31px" viewBox="0 0 45 31" version="1.1" xmlns="http://www.w3.org/2000/svg" xmlns:xlink="http://www.w3.org/1999/xlink">
    <!-- Generator: Sketch 51.2 (57519) - http://www.bohemiancoding.com/sketch -->
    <title>Group 18</title>
    <desc>Created with Sketch.</desc>
    <defs></defs>
    <g id="home" stroke="none" stroke-width="1" fill="none" fill-rule="evenodd">
        <g id="Apple-TV" transform="translate(-730.000000, -556.000000)">
            <g id="Group-18" transform="translate(727.000000, 547.000000)">
                <g id="sliders" transform="translate(4.000000, 10.000000)" stroke-linecap="round" stroke-linejoin="round" stroke-width="2">
                    <path d="M5,29 L5,18" id="Shape" stroke="#3E46AF"></path>
                    <path d="M5,11 L5,0" id="Shape" stroke="#3E46AF"></path>
                    <path d="M16,29 L16,15" id="Shape" stroke="#3E46AF"></path>
                    <path d="M16,8 L16,0" id="Shape" stroke="#3E46AF"></path>
                    <path d="M27,29 L27,21" id="Shape" stroke="#3E46AF"></path>
                    <path d="M27,15 L27,0" id="Shape" stroke="#3E46AF"></path>
                    <path d="M0,18 L10,18" id="Shape" stroke="#D15DED"></path>
                    <path d="M11,8 L21,8" id="Shape" stroke="#D15DED"></path>
                    <path d="M38,29 L38,12" id="Shape" stroke="#3E46AF"></path>
                    <path d="M38,4 L38,0" id="Shape" stroke="#3E46AF"></path>
                    <path d="M33,5 L43,5" id="Shape" stroke="#D15DED"></path>
                    <path d="M22,21 L32,21" id="Shape" stroke="#D15DED"></path>
                </g>
                <rect id="Rectangle-6" stroke-opacity="0" stroke="#979797" x="0.5" y="0.5" width="49" height="49"></rect>
            </g>
        </g>
    </g>
</svg>