<svg height="645" viewBox="0 0 1450 645" width="1450" xmlns="http://www.w3.org/2000/svg"><g fill="none" fill-rule="evenodd" stroke="#d7d9ff" stroke-linecap="square"><g transform="translate(966)"><path d="m161.5.5 160.563072 160.563072"/><path d="m322.5.5 160.563072 160.563072"/><path d="m.5.5 160.563072 160.563072"/><path d="m161.5 161.5 160.563072 160.563072"/><path d="m322.5 161.5 160.563072 160.563072"/><path d="m.5 161.5 160.563072 160.563072"/><path d="m161.5 322.5 160.563072 160.563072"/><path d="m322.5 322.5 160.563072 160.563072"/><path d="m.5 322.5 160.563072 160.563072"/><path d="m161.5 483.5 160.563072 160.563072"/><path d="m322.5 483.5 160.563072 160.563072"/><path d="m.5 483.5 160.563072 160.563072"/><g transform="matrix(1 0 0 -1 0 162)"><path d="m161.5.5 160.563072 160.563072"/><path d="m322.5.5 160.563072 160.563072"/><path d="m.5.5 160.563072 160.563072"/></g><path d="m161.5 161.5 161 161" transform="matrix(1 0 0 -1 0 484)"/><path d="m322.5 161.5 161 161" transform="matrix(1 0 0 -1 0 484)"/><path d="m.5 161.5 161 161" transform="matrix(1 0 0 -1 0 484)"/><path d="m161.5 322.5 161 161" transform="matrix(1 0 0 -1 0 806)"/><path d="m322.5 322.5 161 161" transform="matrix(1 0 0 -1 0 806)"/><path d="m.5 322.5 161 161" transform="matrix(1 0 0 -1 0 806)"/><path d="m161.5 483.5 161 161" transform="matrix(1 0 0 -1 0 1128)"/><path d="m322.5 483.5 161 161" transform="matrix(1 0 0 -1 0 1128)"/><path d="m.5 483.5 161 161" transform="matrix(1 0 0 -1 0 1128)"/></g><g transform="translate(483)"><path d="m161.5.5 160.563072 160.563072"/><path d="m322.5.5 160.563072 160.563072"/><path d="m.5.5 160.563072 160.563072"/><path d="m161.5 161.5 160.563072 160.563072"/><path d="m322.5 161.5 160.563072 160.563072"/><path d="m.5 161.5 160.563072 160.563072"/><path d="m161.5 322.5 160.563072 160.563072"/><path d="m322.5 322.5 160.563072 160.563072"/><path d="m.5 322.5 160.563072 160.563072"/><path d="m161.5 483.5 160.563072 160.563072"/><path d="m322.5 483.5 160.563072 160.563072"/><path d="m.5 483.5 160.563072 160.563072"/><g transform="matrix(1 0 0 -1 0 162)"><path d="m161.5.5 160.563072 160.563072"/><path d="m322.5.5 160.563072 160.563072"/><path d="m.5.5 160.563072 160.563072"/></g><path d="m161.5 161.5 161 161" transform="matrix(1 0 0 -1 0 484)"/><path d="m322.5 161.5 161 161" transform="matrix(1 0 0 -1 0 484)"/><path d="m.5 161.5 161 161" transform="matrix(1 0 0 -1 0 484)"/><path d="m161.5 322.5 161 161" transform="matrix(1 0 0 -1 0 806)"/><path d="m322.5 322.5 161 161" transform="matrix(1 0 0 -1 0 806)"/><path d="m.5 322.5 161 161" transform="matrix(1 0 0 -1 0 806)"/><path d="m161.5 483.5 161 161" transform="matrix(1 0 0 -1 0 1128)"/><path d="m322.5 483.5 161 161" transform="matrix(1 0 0 -1 0 1128)"/><path d="m.5 483.5 161 161" transform="matrix(1 0 0 -1 0 1128)"/></g><path d="m161.5.5 160.563072 160.563072"/><path d="m322.5.5 160.563072 160.563072"/><path d="m.5.5 160.563072 160.563072"/><path d="m161.5 161.5 160.563072 160.563072"/><path d="m322.5 161.5 160.563072 160.563072"/><path d="m.5 161.5 160.563072 160.563072"/><path d="m161.5 322.5 160.563072 160.563072"/><path d="m322.5 322.5 160.563072 160.563072"/><path d="m.5 322.5 160.563072 160.563072"/><path d="m161.5 483.5 160.563072 160.563072"/><path d="m322.5 483.5 160.563072 160.563072"/><path d="m.5 483.5 160.563072 160.563072"/><g transform="matrix(1 0 0 -1 0 162)"><path d="m161.5.5 160.563072 160.563072"/><path d="m322.5.5 160.563072 160.563072"/><path d="m.5.5 160.563072 160.563072"/></g><path d="m161.5 161.5 161 161" transform="matrix(1 0 0 -1 0 484)"/><path d="m322.5 161.5 161 161" transform="matrix(1 0 0 -1 0 484)"/><path d="m.5 161.5 161 161" transform="matrix(1 0 0 -1 0 484)"/><path d="m161.5 322.5 161 161" transform="matrix(1 0 0 -1 0 806)"/><path d="m322.5 322.5 161 161" transform="matrix(1 0 0 -1 0 806)"/><path d="m.5 322.5 161 161" transform="matrix(1 0 0 -1 0 806)"/><path d="m161.5 483.5 161 161" transform="matrix(1 0 0 -1 0 1128)"/><path d="m322.5 483.5 161 161" transform="matrix(1 0 0 -1 0 1128)"/><path d="m.5 483.5 161 161" transform="matrix(1 0 0 -1 0 1128)"/></g></svg>