<?xml version="1.0" encoding="UTF-8"?>
<svg width="47px" height="41px" viewBox="0 0 47 41" version="1.1" xmlns="http://www.w3.org/2000/svg" xmlns:xlink="http://www.w3.org/1999/xlink">
    <!-- Generator: Sketch 51.2 (57519) - http://www.bohemiancoding.com/sketch -->
    <title>Group 19</title>
    <desc>Created with Sketch.</desc>
    <defs></defs>
    <g id="home" stroke="none" stroke-width="1" fill="none" fill-rule="evenodd">
        <g id="Apple-TV" transform="translate(-975.000000, -551.000000)">
            <g id="Group-19" transform="translate(974.000000, 547.000000)">
                <g id="Group-5" transform="translate(2.000000, 5.000000)" stroke-linecap="round" stroke-linejoin="round" stroke-width="2">
                    <g id="heart-copy" stroke="#3E46AF">
                        <path d="M41.5300794,3.44788287 C39.3094254,1.24029633 36.2969464,-1.89991716e-15 33.15573,0 C30.0145137,9.4995858e-16 27.0020346,1.24029633 24.7813806,3.44788287 L22.4994242,5.71534642 L20.2174678,3.44788287 C15.5924423,-1.14776866 8.09379453,-1.1477686 3.46876911,3.44788299 C-1.15625632,8.04353459 -1.15625638,15.494558 3.46876898,20.0902097 L5.75072538,22.3576732 L22.4994242,39 L39.248123,22.3576732 L41.5300794,20.0902097 C43.7517761,17.8836592 45,14.8903126 45,11.7690463 C45,8.64777995 43.7517761,5.65443336 41.5300794,3.44788287 Z" id="Shape"></path>
                    </g>
                    <g id="heart-copy" transform="translate(12.000000, 12.000000)" stroke="#D15DED">
                        <path d="M18.6685775,1.4382534 C17.6996904,0.517378484 16.3853244,-7.92533393e-16 15.0147894,0 C13.6442544,3.96266697e-16 12.3298885,0.517378484 11.3610014,1.4382534 L10.3653676,2.38410547 L9.36973387,1.4382534 C7.35180245,-0.478781395 4.08008925,-0.478781372 2.06215786,1.43825345 C0.0442264688,3.35528827 0.0442264445,6.46341581 2.0621578,8.38045066 L3.05779156,9.32630273 L10.3653676,16.2685 L17.6729437,9.32630273 L18.6685775,8.38045066 C19.6379195,7.46000793 20.1825284,6.21136026 20.1825284,4.90935203 C20.1825284,3.6073438 19.6379195,2.35869613 18.6685775,1.4382534 Z" id="Shape"></path>
                    </g>
                </g>
                <rect id="Rectangle-6-Copy" stroke-opacity="0" stroke="#979797" x="0.5" y="0.5" width="49" height="49"></rect>
            </g>
        </g>
    </g>
</svg>