<?xml version="1.0" encoding="UTF-8"?>
<svg width="48px" height="46px" viewBox="0 0 48 46" version="1.1" xmlns="http://www.w3.org/2000/svg" xmlns:xlink="http://www.w3.org/1999/xlink">
    <!-- Generator: Sketch 51.2 (57519) - http://www.bohemiancoding.com/sketch -->
    <title>Group 16</title>
    <desc>Created with Sketch.</desc>
    <defs></defs>
    <g id="home" stroke="none" stroke-width="1" fill="none" fill-rule="evenodd">
        <g id="Apple-TV" transform="translate(-484.000000, -548.000000)">
            <g id="Group-16" transform="translate(483.000000, 546.000000)">
                <g id="Group-6" transform="translate(2.000000, 3.000000)" stroke-linecap="round" stroke-linejoin="round" stroke-width="2">
                    <g id="box-copy-2" transform="translate(13.000000, 0.000000)" stroke="#D15DED">
                        <path d="M10.89,0.45 L18.89,4.45 C19.5696577,4.78773001 19.9995973,5.48105603 20,6.24 L20,15.77 C19.9995973,16.528944 19.5696577,17.22227 18.89,17.56 L10.89,21.56 C10.3266321,21.8419095 9.66336793,21.8419095 9.1,21.56 L1.1,17.56 C0.420992406,17.2178689 -0.00529133616,16.5203137 1.1102298e-15,15.76 L1.1102298e-15,6.24 C0.000402725292,5.48105603 0.430342321,4.78773001 1.11,4.45 L9.11,0.45 C9.67063262,0.171414851 10.3293674,0.171414851 10.89,0.45 Z" id="Shape"></path>
                        <polyline id="Shape" points="0.32 5.16 10 10 19.68 5.16"></polyline>
                        <path d="M10,21.76 L10,10" id="Shape"></path>
                    </g>
                    <g id="box" transform="translate(0.000000, 22.000000)" stroke="#3E46AF">
                        <path d="M10.89,0.45 L18.89,4.45 C19.5696577,4.78773001 19.9995973,5.48105603 20,6.24 L20,15.77 C19.9995973,16.528944 19.5696577,17.22227 18.89,17.56 L10.89,21.56 C10.3266321,21.8419095 9.66336793,21.8419095 9.1,21.56 L1.1,17.56 C0.420992406,17.2178689 -0.00529133616,16.5203137 1.1102298e-15,15.76 L1.1102298e-15,6.24 C0.000402725292,5.48105603 0.430342321,4.78773001 1.11,4.45 L9.11,0.45 C9.67063262,0.171414851 10.3293674,0.171414851 10.89,0.45 Z" id="Shape"></path>
                        <polyline id="Shape" points="0.32 5.16 10 10 19.68 5.16"></polyline>
                        <path d="M10,21.76 L10,10" id="Shape"></path>
                    </g>
                    <g id="box-copy" transform="translate(26.000000, 22.000000)" stroke="#3E46AF">
                        <path d="M10.89,0.45 L18.89,4.45 C19.5696577,4.78773001 19.9995973,5.48105603 20,6.24 L20,15.77 C19.9995973,16.528944 19.5696577,17.22227 18.89,17.56 L10.89,21.56 C10.3266321,21.8419095 9.66336793,21.8419095 9.1,21.56 L1.1,17.56 C0.420992406,17.2178689 -0.00529133616,16.5203137 1.1102298e-15,15.76 L1.1102298e-15,6.24 C0.000402725292,5.48105603 0.430342321,4.78773001 1.11,4.45 L9.11,0.45 C9.67063262,0.171414851 10.3293674,0.171414851 10.89,0.45 Z" id="Shape"></path>
                        <polyline id="Shape" points="0.32 5.16 10 10 19.68 5.16"></polyline>
                        <path d="M10,21.76 L10,10" id="Shape"></path>
                    </g>
                </g>
                <rect id="Rectangle-6" stroke-opacity="0" stroke="#979797" x="0.5" y="0.5" width="49" height="49"></rect>
            </g>
        </g>
    </g>
</svg>