<?xml version="1.0" encoding="UTF-8"?>
<svg width="40px" height="40px" viewBox="0 0 40 40" version="1.1" xmlns="http://www.w3.org/2000/svg" xmlns:xlink="http://www.w3.org/1999/xlink">
    <!-- Generator: Sketch 51.2 (57519) - http://www.bohemiancoding.com/sketch -->
    <title>Group 17</title>
    <desc>Created with Sketch.</desc>
    <defs></defs>
    <g id="home" stroke="none" stroke-width="1" fill="none" fill-rule="evenodd">
        <g id="Apple-TV" transform="translate(-244.000000, -551.000000)">
            <g id="Group-17" transform="translate(239.000000, 546.000000)">
                <rect id="Rectangle-6" stroke-opacity="0" stroke="#979797" x="0.5" y="0.5" width="49" height="49"></rect>
                <g id="Group-4" transform="translate(6.000000, 6.000000)" stroke-linecap="round" stroke-linejoin="round" stroke-width="2">
                    <g id="Group-4-Copy" stroke="#3E46AF">
                        <g id="Group-7">
                            <polyline id="Shape" transform="translate(4.000000, 4.000000) rotate(90.000000) translate(-4.000000, -4.000000) " points="1 1 7 1 7 7"></polyline>
                            <polyline id="Shape" transform="translate(34.000000, 34.000000) rotate(90.000000) translate(-34.000000, -34.000000) " points="37 37 31 37 31 31"></polyline>
                            <path d="M31,38 L38,31" id="Shape" transform="translate(34.500000, 34.500000) rotate(90.000000) translate(-34.500000, -34.500000) "></path>
                            <path d="M0,7 L7,0" id="Shape" transform="translate(3.500000, 3.500000) rotate(90.000000) translate(-3.500000, -3.500000) "></path>
                            <polyline id="Shape" points="1 31 7 31 7 37"></polyline>
                            <polyline id="Shape" points="37 7 31 7 31 1"></polyline>
                            <path d="M31,7 L38,0" id="Shape"></path>
                            <path d="M0,38 L7,31" id="Shape"></path>
                        </g>
                    </g>
                    <g id="package" transform="translate(9.000000, 8.000000)" stroke="#D15DED">
                        <path d="M10.89,0.45 L18.89,4.45 C19.5696577,4.78773001 19.9995973,5.48105603 20,6.24 L20,15.77 C19.9995973,16.528944 19.5696577,17.22227 18.89,17.56 L10.89,21.56 C10.3266321,21.8419095 9.66336793,21.8419095 9.1,21.56 L1.1,17.56 C0.420992406,17.2178689 -0.00529133616,16.5203137 1.1102298e-15,15.76 L1.1102298e-15,6.24 C0.000402725292,5.48105603 0.430342321,4.78773001 1.11,4.45 L9.11,0.45 C9.67063262,0.171414851 10.3293674,0.171414851 10.89,0.45 Z" id="Shape"></path>
                        <polyline id="Shape" points="0.32 5.16 10 10 19.68 5.16"></polyline>
                        <path d="M10,21.76 L10,10" id="Shape"></path>
                        <path d="M5,2.5 L15,7.5" id="Shape"></path>
                    </g>
                </g>
            </g>
        </g>
    </g>
</svg>